<svg id="Layer_1" data-name="Layer 1" xmlns="http://www.w3.org/2000/svg" viewBox="0 0 721.39 250.39"><defs><style>.cls-1{fill:#374785;}.cls-2{fill:none;stroke:#f76c6c;stroke-miterlimit:10;stroke-width:6.55px;}</style></defs><path class="cls-1" d="M105.76,115l-.15-61.26a1.64,1.64,0,0,0-3-.84L72.31,103.75a1.62,1.62,0,0,1-1.4.8H60.8a1.63,1.63,0,0,1-1.4-.79L29.32,54.32a1.64,1.64,0,0,0-3,.85V115a1.63,1.63,0,0,1-1.64,1.64H3A1.64,1.64,0,0,1,1.37,115V3.61A1.64,1.64,0,0,1,3,2h19.4a1.64,1.64,0,0,1,1.4.79l41,68.14a1.64,1.64,0,0,0,2.82,0l40.4-68.12a1.62,1.62,0,0,1,1.41-.8h19.23a1.65,1.65,0,0,1,1.64,1.63L130.66,115a1.63,1.63,0,0,1-1.63,1.64H107.4A1.63,1.63,0,0,1,105.76,115Z"/><path class="cls-1" d="M232.31,92.1H181.24a1.63,1.63,0,0,0-1.51,1l-9.32,22.56a1.65,1.65,0,0,1-1.52,1H145.31a1.64,1.64,0,0,1-1.5-2.31L193.48,2.94A1.64,1.64,0,0,1,195,2h24.09a1.65,1.65,0,0,1,1.5,1l49.82,111.43a1.63,1.63,0,0,1-1.49,2.31H244.66a1.63,1.63,0,0,1-1.51-1l-9.32-22.56A1.66,1.66,0,0,0,232.31,92.1Zm-8.2-22.43-15.74-38a1.63,1.63,0,0,0-3,0l-15.74,38a1.64,1.64,0,0,0,1.51,2.27H222.6A1.64,1.64,0,0,0,224.11,69.67Z"/><path class="cls-1" d="M323.89,73,310.22,87.19a1.68,1.68,0,0,0-.46,1.14V115a1.63,1.63,0,0,1-1.63,1.64H285a1.64,1.64,0,0,1-1.64-1.64V3.61A1.64,1.64,0,0,1,285,2h23.11a1.63,1.63,0,0,1,1.63,1.64V51.44a1.64,1.64,0,0,0,2.83,1.13L360.08,2.48A1.63,1.63,0,0,1,361.27,2h25a1.63,1.63,0,0,1,1.2,2.75l-44,47.34a1.65,1.65,0,0,0-.09,2.14L390.75,114a1.64,1.64,0,0,1-1.28,2.66H362.66a1.63,1.63,0,0,1-1.27-.6l-35.05-43A1.63,1.63,0,0,0,323.89,73Z"/><path class="cls-1" d="M493.46,97v18a1.64,1.64,0,0,1-1.64,1.64H406.28a1.63,1.63,0,0,1-1.64-1.64V3.61A1.63,1.63,0,0,1,406.28,2h83.41a1.64,1.64,0,0,1,1.64,1.64v18a1.64,1.64,0,0,1-1.64,1.64h-57A1.64,1.64,0,0,0,431,24.91V46.54a1.65,1.65,0,0,0,1.64,1.64h50a1.63,1.63,0,0,1,1.64,1.64V67.19a1.64,1.64,0,0,1-1.64,1.64h-50A1.64,1.64,0,0,0,431,70.46V93.74a1.64,1.64,0,0,0,1.64,1.63h59.16A1.65,1.65,0,0,1,493.46,97Z"/><path class="cls-1" d="M588.54,116.68a1.62,1.62,0,0,1-1.35-.71L565.55,84.72H542.78a1.64,1.64,0,0,0-1.64,1.64V115a1.64,1.64,0,0,1-1.64,1.64H516.23a1.63,1.63,0,0,1-1.64-1.64V3.61A1.63,1.63,0,0,1,516.23,2h48c30.65,0,49.82,15.89,49.82,41.62,0,16.51-8,28.79-21.81,35.41a1.63,1.63,0,0,0-.67,2.4l22.81,32.7a1.64,1.64,0,0,1-1.34,2.58ZM562.77,23.6h-20a1.63,1.63,0,0,0-1.64,1.64V62a1.63,1.63,0,0,0,1.64,1.63h20c16.22,0,24.42-7.54,24.42-20C587.19,31,579,23.6,562.77,23.6Z"/><path class="cls-1" d="M626.56,104.15l7.66-17a1.62,1.62,0,0,1,2.4-.67,68,68,0,0,0,36.26,10.85c15.73,0,22.12-5.24,22.12-12.29,0-21.47-66.69-6.72-66.69-49.33C628.31,16.22,644,0,676.65,0c13.89,0,28.08,3.19,38.62,9.43a1.64,1.64,0,0,1,.67,2l-7,17.16a1.63,1.63,0,0,1-2.29.8,64.19,64.19,0,0,0-30.19-8.12c-15.73,0-21.8,5.89-21.8,13.1,0,21.14,66.7,6.56,66.7,48.67,0,19.18-15.9,35.56-48.67,35.56-17.58,0-35.3-5-45.65-12.48A1.64,1.64,0,0,1,626.56,104.15Z"/><path class="cls-1" d="M324.64,149.11c0-9.55,7.43-16.61,17.58-16.61s17.58,7,17.58,16.61-7.48,16.62-17.58,16.62S324.64,158.66,324.64,149.11Zm27.63,0c0-6.1-4.31-10.28-10-10.28s-10.05,4.18-10.05,10.28,4.31,10.29,10.05,10.29S352.27,155.22,352.27,149.11Z"/><path class="cls-1" d="M372.82,140.65v5.22a1.64,1.64,0,0,0,1.64,1.64h11.6a1.64,1.64,0,0,1,1.64,1.64v2.69a1.65,1.65,0,0,1-1.64,1.64h-11.6a1.63,1.63,0,0,0-1.64,1.63v8.43a1.63,1.63,0,0,1-1.64,1.64H367a1.64,1.64,0,0,1-1.64-1.64V134.69a1.64,1.64,0,0,1,1.64-1.64h21a1.64,1.64,0,0,1,1.64,1.64v2.68A1.64,1.64,0,0,1,388,139H374.46A1.64,1.64,0,0,0,372.82,140.65Z"/><path class="cls-1" d="M1.61,178.62A1.65,1.65,0,0,1,3.25,177H35c24,0,40.48,14.48,40.48,36.71S59,250.39,35,250.39H3.25a1.64,1.64,0,0,1-1.64-1.64Zm32.51,57.82c14.58,0,24.12-8.7,24.12-22.75s-9.54-22.76-24.12-22.76H20.24a1.64,1.64,0,0,0-1.64,1.64V234.8a1.64,1.64,0,0,0,1.64,1.64Z"/><path class="cls-1" d="M170.25,238.4v10.35a1.64,1.64,0,0,1-1.64,1.64H115.05a1.63,1.63,0,0,1-1.64-1.64V178.62a1.64,1.64,0,0,1,1.64-1.64h52.19a1.64,1.64,0,0,1,1.64,1.64V189a1.64,1.64,0,0,1-1.64,1.64H131.93a1.64,1.64,0,0,0-1.64,1.64v12.66a1.65,1.65,0,0,0,1.64,1.64h30.8a1.63,1.63,0,0,1,1.64,1.63v9.94a1.63,1.63,0,0,1-1.64,1.64h-30.8a1.64,1.64,0,0,0-1.64,1.64v13.71a1.65,1.65,0,0,0,1.64,1.64h36.68A1.64,1.64,0,0,1,170.25,238.4Z"/><path class="cls-1" d="M276.27,178.62v70.13a1.63,1.63,0,0,1-1.64,1.64H263.1a1.64,1.64,0,0,1-1.27-.6l-33.2-40.43a1.64,1.64,0,0,0-2.91,1v38.35a1.63,1.63,0,0,1-1.63,1.64H210.58a1.63,1.63,0,0,1-1.63-1.64V178.62a1.64,1.64,0,0,1,1.63-1.64h11.64a1.64,1.64,0,0,1,1.27.6L256.58,218a1.64,1.64,0,0,0,2.91-1V178.62a1.64,1.64,0,0,1,1.64-1.64h13.5A1.64,1.64,0,0,1,276.27,178.62Z"/><path class="cls-1" d="M385.65,248.75l-.09-36.47a1.63,1.63,0,0,0-3-.84l-18.1,30.39a1.62,1.62,0,0,1-1.4.8h-5.81a1.64,1.64,0,0,1-1.4-.79l-18-29.55a1.64,1.64,0,0,0-3,.85v35.61a1.63,1.63,0,0,1-1.63,1.64H320.49a1.64,1.64,0,0,1-1.64-1.64V178.62a1.65,1.65,0,0,1,1.64-1.64H332a1.61,1.61,0,0,1,1.4.8L359,220.25a1.63,1.63,0,0,0,2.81,0L387,177.79a1.65,1.65,0,0,1,1.41-.81h11.38a1.64,1.64,0,0,1,1.64,1.64l.2,70.13a1.64,1.64,0,0,1-1.64,1.64H387.29A1.63,1.63,0,0,1,385.65,248.75Z"/><path class="cls-1" d="M491.42,234.66H459.53a1.63,1.63,0,0,0-1.51,1l-5.67,13.71a1.63,1.63,0,0,1-1.51,1H437.05a1.64,1.64,0,0,1-1.49-2.31L466.81,178a1.65,1.65,0,0,1,1.5-1H483a1.65,1.65,0,0,1,1.5,1l31.36,70.13a1.64,1.64,0,0,1-1.5,2.31h-14.2a1.65,1.65,0,0,1-1.52-1l-5.66-13.71A1.66,1.66,0,0,0,491.42,234.66Zm-5.19-15.16L477,197.31a1.64,1.64,0,0,0-3,0l-9.18,22.19a1.63,1.63,0,0,0,1.51,2.26h18.38A1.63,1.63,0,0,0,486.23,219.5Z"/><path class="cls-1" d="M597.31,250.39a1.66,1.66,0,0,1-1.35-.71l-13.67-19.74h-14a1.63,1.63,0,0,0-1.64,1.64v17.17a1.64,1.64,0,0,1-1.64,1.64H551.32a1.63,1.63,0,0,1-1.64-1.64V178.62a1.64,1.64,0,0,1,1.64-1.64h30.13c19.61,0,31.88,10.18,31.88,26.64,0,10.32-4.88,18.06-13.34,22.36a1.64,1.64,0,0,0-.66,2.4l13.57,19.43a1.64,1.64,0,0,1-1.35,2.58Zm-16.8-59.56h-12.2a1.63,1.63,0,0,0-1.64,1.64v22.3a1.63,1.63,0,0,0,1.64,1.64h12.2c10.38,0,15.63-4.82,15.63-12.79S590.89,190.83,580.51,190.83Z"/><path class="cls-1" d="M677.39,222.89l-8.12,8.46a1.64,1.64,0,0,0-.46,1.14v16.26a1.63,1.63,0,0,1-1.64,1.64h-13.6a1.63,1.63,0,0,1-1.64-1.64V178.62a1.64,1.64,0,0,1,1.64-1.64h13.6a1.64,1.64,0,0,1,1.64,1.64v28.55a1.64,1.64,0,0,0,2.83,1.12l29.19-30.8A1.67,1.67,0,0,1,702,177h14.42a1.64,1.64,0,0,1,1.2,2.76l-26.9,28.93a1.64,1.64,0,0,0-.08,2.14l29.22,36.92a1.64,1.64,0,0,1-1.29,2.66H702.94a1.61,1.61,0,0,1-1.27-.61L679.84,223A1.64,1.64,0,0,0,677.39,222.89Z"/><line class="cls-2" x1="284.42" y1="148.31" y2="148.31"/><line class="cls-2" x1="435.88" y1="148.31" x2="720.29" y2="148.31"/></svg>